<svg width="34" height="40" fill="none" xmlns="http://www.w3.org/2000/svg"><path d="M22.826.628c.625.08 1.111.623 1.111 1.285v4.445h8.174l.16.01c.624.08 1.11.624 1.11 1.286 0 .717-.57 1.295-1.27 1.295h-.618v23.58l-.008.33c-.17 3.734-3.21 6.705-6.93 6.705H9.446l-.327-.008c-3.678-.173-6.611-3.252-6.611-7.028V8.948H1.89l-.16-.01A1.287 1.287 0 01.62 7.655c0-.717.57-1.296 1.27-1.296h8.174V1.913l.01-.162a1.28 1.28 0 011.26-1.133h11.334l.158.01zM5.048 8.948v23.58l.008.261c.133 2.332 2.046 4.184 4.388 4.184h15.112l.258-.007c2.31-.136 4.137-2.072 4.137-4.438V8.948H5.048zm9.445 6.36v15.307l-.01.163a1.28 1.28 0 01-1.26 1.132c-.7 0-1.272-.578-1.272-1.295V15.307l.01-.162a1.28 1.28 0 011.261-1.133c.7 0 1.27.578 1.27 1.295l.001.001zm7.555 0v15.307l-.01.163a1.28 1.28 0 01-1.26 1.132c-.7 0-1.27-.578-1.27-1.295V15.307l.009-.162a1.28 1.28 0 011.26-1.133c.7 0 1.271.578 1.271 1.295v.001zm-9.444-12.1v3.15h8.792v-3.15h-8.792z" fill="url(#paint0_linear)"/><defs><linearGradient id="paint0_linear" x1="2.62" y1=".62" x2="31.38" y2="39.56" gradientUnits="userSpaceOnUse"><stop stop-color="#FF4A7D"/><stop offset="1" stop-color="#D9124F"/></linearGradient></defs></svg>