<svg width="34" height="40" viewBox="0 0 34 40" fill="none" xmlns="http://www.w3.org/2000/svg">
<path d="M22.826 0.628012C23.451 0.708012 23.937 1.25101 23.937 1.91301V6.35801H32.111L32.271 6.36801C32.895 6.44801 33.381 6.99201 33.381 7.65401C33.381 8.37101 32.811 8.94901 32.111 8.94901H31.493V32.529L31.485 32.859C31.315 36.593 28.275 39.564 24.555 39.564H9.44599L9.11899 39.556C5.44099 39.383 2.50799 36.304 2.50799 32.528V8.94801H1.88999L1.72999 8.93801C1.42086 8.8951 1.13786 8.74132 0.933667 8.50529C0.729472 8.26927 0.617996 7.9671 0.619991 7.65501C0.619991 6.93801 1.18999 6.35901 1.88999 6.35901H10.064V1.91301L10.074 1.75101C10.1098 1.44103 10.2576 1.15481 10.4897 0.946167C10.7217 0.737523 11.022 0.620824 11.334 0.618011H22.668L22.826 0.628012ZM5.04799 8.94801V32.528L5.05599 32.789C5.18899 35.121 7.10199 36.973 9.44399 36.973H24.556L24.814 36.966C27.124 36.83 28.951 34.894 28.951 32.528V8.94801H5.04799ZM14.493 15.308V30.615L14.483 30.778C14.4469 31.0878 14.299 31.3738 14.067 31.5822C13.835 31.7907 13.5349 31.9072 13.223 31.91C12.523 31.91 11.951 31.332 11.951 30.615V15.307L11.961 15.145C11.9968 14.8349 12.1448 14.5485 12.377 14.3398C12.6093 14.1312 12.9098 14.0146 13.222 14.012C13.922 14.012 14.492 14.59 14.492 15.307L14.493 15.308ZM22.048 15.308V30.615L22.038 30.778C22.0019 31.0878 21.854 31.3738 21.622 31.5822C21.39 31.7907 21.0899 31.9072 20.778 31.91C20.078 31.91 19.508 31.332 19.508 30.615V15.307L19.517 15.145C19.5528 14.835 19.7006 14.5488 19.9327 14.3402C20.1647 14.1315 20.465 14.0148 20.777 14.012C21.477 14.012 22.048 14.59 22.048 15.307V15.308ZM12.604 3.20801V6.35801H21.396V3.20801H12.604Z" fill="url(#paint0_linear)"/>
<defs>
<linearGradient id="paint0_linear" x1="2.61999" y1="0.620011" x2="31.38" y2="39.56" gradientUnits="userSpaceOnUse">
<stop stop-color="#FF4A7D"/>
<stop offset="1" stop-color="#D9124F"/>
</linearGradient>
</defs>
</svg>
